<mxfile host="app.diagrams.net" modified="2021-10-25T00:34:57.012Z" agent="5.0 (Windows)" etag="vSXV3jooZuf2G_e5GST6" version="15.5.9" type="github">
  <diagram id="6a731a19-8d31-9384-78a2-239565b7b9f0" name="Page-1">
    <mxGraphModel dx="574" dy="697" grid="1" gridSize="10" guides="1" tooltips="1" connect="1" arrows="1" fold="1" page="1" pageScale="1" pageWidth="1169" pageHeight="827" background="none" math="0" shadow="0">
      <root>
        <mxCell id="0" />
        <mxCell id="1" parent="0" />
        <mxCell id="2" value="&lt;font face=&quot;Comic Sans MS&quot;&gt;INÍCIO&lt;/font&gt;" style="shape=mxgraph.flowchart.terminator;strokeWidth=2;gradientColor=none;gradientDirection=north;fontStyle=0;html=1;shadow=1;sketch=1;" parent="1" vertex="1">
          <mxGeometry x="270" y="40" width="80" height="40" as="geometry" />
        </mxCell>
        <mxCell id="zc8Qciz_fjwcjRfFdJd3-55" value="DATA DO EVENTO" style="shape=manualInput;whiteSpace=wrap;html=1;shadow=1;sketch=1;fontFamily=Comic Sans MS;strokeWidth=2;gradientColor=#ffffff;gradientDirection=north;size=13;" vertex="1" parent="1">
          <mxGeometry x="240" y="190" width="140" height="50" as="geometry" />
        </mxCell>
        <mxCell id="zc8Qciz_fjwcjRfFdJd3-56" value="INSIRA A DATA DO EVENTO" style="shape=display;whiteSpace=wrap;html=1;shadow=1;sketch=1;fontFamily=Comic Sans MS;strokeWidth=2;gradientColor=#ffffff;gradientDirection=north;size=0.15789473684210525;" vertex="1" parent="1">
          <mxGeometry x="210" y="120" width="200" height="40" as="geometry" />
        </mxCell>
        <mxCell id="zc8Qciz_fjwcjRfFdJd3-57" value="SE A DATA DO EVENTO &amp;gt;= DATA ATUAL" style="rhombus;whiteSpace=wrap;html=1;shadow=1;sketch=1;fontFamily=Comic Sans MS;strokeWidth=2;gradientColor=#ffffff;gradientDirection=north;" vertex="1" parent="1">
          <mxGeometry x="245" y="280" width="130" height="110" as="geometry" />
        </mxCell>
        <mxCell id="zc8Qciz_fjwcjRfFdJd3-58" value="DATA DO EVENTO INVÁLIDA" style="shape=display;whiteSpace=wrap;html=1;shadow=1;sketch=1;fontFamily=Comic Sans MS;strokeWidth=2;gradientColor=#ffffff;gradientDirection=north;size=0.15789473684210525;" vertex="1" parent="1">
          <mxGeometry x="430" y="315" width="200" height="40" as="geometry" />
        </mxCell>
        <mxCell id="zc8Qciz_fjwcjRfFdJd3-60" value="EVENTO CADASTRADO COM SUCESSO" style="shape=display;whiteSpace=wrap;html=1;shadow=1;sketch=1;fontFamily=Comic Sans MS;strokeWidth=2;gradientColor=#ffffff;gradientDirection=north;size=0.15789473684210525;" vertex="1" parent="1">
          <mxGeometry x="220" y="450" width="200" height="40" as="geometry" />
        </mxCell>
        <mxCell id="zc8Qciz_fjwcjRfFdJd3-61" value="INSIRA NASCIMENTO DO PARTICIPANTE" style="shape=display;whiteSpace=wrap;html=1;shadow=1;sketch=1;fontFamily=Comic Sans MS;strokeWidth=2;gradientColor=#ffffff;gradientDirection=north;size=0.15789473684210525;" vertex="1" parent="1">
          <mxGeometry x="220" y="740" width="200" height="40" as="geometry" />
        </mxCell>
        <mxCell id="zc8Qciz_fjwcjRfFdJd3-62" value="DATA DE NASCIMENTO" style="shape=manualInput;whiteSpace=wrap;html=1;shadow=1;sketch=1;fontFamily=Comic Sans MS;strokeWidth=2;gradientColor=#ffffff;gradientDirection=north;size=13;" vertex="1" parent="1">
          <mxGeometry x="250" y="810" width="140" height="50" as="geometry" />
        </mxCell>
        <mxCell id="zc8Qciz_fjwcjRfFdJd3-63" value="PARTICIPANTE MENOR DE 18 ANOS" style="shape=display;whiteSpace=wrap;html=1;shadow=1;sketch=1;fontFamily=Comic Sans MS;strokeWidth=2;gradientColor=#ffffff;gradientDirection=north;size=0.15789473684210525;" vertex="1" parent="1">
          <mxGeometry x="485" y="815" width="200" height="40" as="geometry" />
        </mxCell>
        <mxCell id="zc8Qciz_fjwcjRfFdJd3-64" value="INSIRA O NOME DO PARTICIPANTE" style="shape=display;whiteSpace=wrap;html=1;shadow=1;sketch=1;fontFamily=Comic Sans MS;strokeWidth=2;gradientColor=#ffffff;gradientDirection=north;size=0.15789473684210525;" vertex="1" parent="1">
          <mxGeometry x="220" y="897" width="200" height="40" as="geometry" />
        </mxCell>
        <mxCell id="zc8Qciz_fjwcjRfFdJd3-65" value="NOME" style="shape=manualInput;whiteSpace=wrap;html=1;shadow=1;sketch=1;fontFamily=Comic Sans MS;strokeWidth=2;gradientColor=#ffffff;gradientDirection=north;size=13;" vertex="1" parent="1">
          <mxGeometry x="250" y="967" width="140" height="50" as="geometry" />
        </mxCell>
        <mxCell id="zc8Qciz_fjwcjRfFdJd3-66" value="INSIRA O NOME DO PALESTRANTE" style="shape=display;whiteSpace=wrap;html=1;shadow=1;sketch=1;fontFamily=Comic Sans MS;strokeWidth=2;gradientColor=#ffffff;gradientDirection=north;size=0.15789473684210525;" vertex="1" parent="1">
          <mxGeometry x="210" y="520" width="200" height="40" as="geometry" />
        </mxCell>
        <mxCell id="zc8Qciz_fjwcjRfFdJd3-67" value="NOME" style="shape=manualInput;whiteSpace=wrap;html=1;shadow=1;sketch=1;fontFamily=Comic Sans MS;strokeWidth=2;gradientColor=#ffffff;gradientDirection=north;size=13;" vertex="1" parent="1">
          <mxGeometry x="240" y="590" width="140" height="50" as="geometry" />
        </mxCell>
      </root>
    </mxGraphModel>
  </diagram>
</mxfile>
